<svg width="139" height="55" viewBox="0 0 139 55" fill="none" xmlns="http://www.w3.org/2000/svg">
<g clip-path="url(#clip0_6075_294)">
<path d="M0 14C0 6.26801 6.26801 0 14 0H125C132.732 0 139 6.26801 139 14V41C139 48.732 132.732 55 125 55H14C6.26802 55 0 48.732 0 41V14Z" fill="#111111"/>
<path d="M39 33.6989V40H15V20.9864C18.802 20.1371 22.5773 19.0412 26.2474 17.6988C30.6303 16.1097 34.8813 14.2192 39 12V19.0137C35.5148 20.7673 31.8976 22.3013 28.2279 23.6438C24.0825 25.1507 19.8315 26.3561 15.5282 27.2878V27.3424C23.475 26.5756 31.2901 25.2328 39 23.3701V29.8079C31.2675 31.623 23.4261 32.9044 15.5282 33.6436V33.6985L39 33.6989Z" fill="#EEEEE1"/>
<path d="M55.8806 18.6C61.4006 18.6 65.6006 20.496 65.6006 27.288C65.6006 34.08 61.4006 36 55.8806 36H51.1286V18.6H55.8806ZM55.7366 21.048H54.1766V33.552H55.7366C59.0726 33.552 62.4326 32.808 62.4326 27.288C62.4326 21.792 59.0726 21.048 55.7366 21.048ZM70.0289 30.36C70.2209 32.76 71.9009 33.936 73.5329 33.936C75.0209 33.936 76.1969 33.336 76.7009 32.136H79.5089C78.9089 34.2 76.9889 36.312 73.6529 36.312C69.5009 36.312 67.1249 33.144 67.1249 29.448C67.1249 25.56 69.7889 22.8 73.4609 22.8C77.4209 22.8 79.8929 26.016 79.6529 30.36H70.0289ZM70.0289 28.272H76.7489C76.6769 26.256 75.1409 25.032 73.4609 25.032C72.1169 25.032 70.2689 25.824 70.0289 28.272ZM84.3806 23.088V24.816C85.1486 23.544 86.4926 22.8 88.2206 22.8C91.3646 22.8 93.7646 25.416 93.7646 29.544C93.7646 33.696 91.3646 36.312 88.2206 36.312C86.4926 36.312 85.1486 35.568 84.3806 34.296V40.2H81.5246V23.088H84.3806ZM87.5966 33.984C89.5886 33.984 90.7886 32.28 90.7886 29.544C90.7886 26.832 89.5886 25.128 87.5966 25.128C85.7246 25.128 84.2606 26.568 84.2606 29.544C84.2606 32.52 85.7246 33.984 87.5966 33.984ZM98.4787 36H95.6227V18.6H98.4787V36ZM113.069 29.568C113.069 34.224 109.853 36.312 106.709 36.312C103.565 36.312 100.349 34.224 100.349 29.568C100.349 24.912 103.565 22.8 106.709 22.8C109.853 22.8 113.069 24.912 113.069 29.568ZM106.709 33.984C108.509 33.984 110.117 32.544 110.117 29.568C110.117 26.592 108.509 25.128 106.709 25.128C104.909 25.128 103.301 26.592 103.301 29.568C103.301 32.544 104.909 33.984 106.709 33.984ZM114.198 40.2V38.016H115.278C116.526 38.016 117.054 37.92 117.63 36.24L117.774 35.928L113.094 23.088H116.214L119.142 32.352L122.07 23.088H124.998L120.462 35.976C119.262 39.312 118.398 40.2 115.494 40.2H114.198Z" fill="#EEEEE1"/>
</g>
<defs>
<clipPath id="clip0_6075_294">
<rect width="139" height="55" fill="white"/>
</clipPath>
</defs>
</svg>
